<svg id="Layer_1" data-name="Layer 1" xmlns="http://www.w3.org/2000/svg" xmlns:xlink="http://www.w3.org/1999/xlink" viewBox="0 0 72 72"><defs><style>.cls-1{fill:url(#linear-gradient);}.cls-2{fill:#fff;}</style><linearGradient id="linear-gradient" x1="14.68" y1="54.44" x2="50.39" y2="16.21" gradientUnits="userSpaceOnUse"><stop offset="0" stop-color="#02a502"/><stop offset="1" stop-color="#30cb00"/></linearGradient></defs><path class="cls-1" d="M56,16.86,30.8,6.85a8.53,8.53,0,0,0-11.08,4.78l-10,25.23a8.53,8.53,0,0,0,4.78,11.08l2.43,1L12,60.47l15.72-7.28,12,4.76A8.53,8.53,0,0,0,50.8,53.17l10-25.23A8.53,8.53,0,0,0,56,16.86Z"/><path class="cls-2" d="M27.66,9a5.8,5.8,0,0,1,2.13.41L55,19.42a5.79,5.79,0,0,1,3.24,7.51l-10,25.23a5.71,5.71,0,0,1-2.16,2.67,5.77,5.77,0,0,1-3.21,1,5.85,5.85,0,0,1-2.14-.41l-12-4.76-1.1-.44-1.07.5L17.33,55l2.12-5,1.1-2.6-2.62-1-2.42-1a5.79,5.79,0,0,1-3.25-7.51l10-25.22A5.69,5.69,0,0,1,24.44,10a5.78,5.78,0,0,1,3.22-1m0-2.75a8.54,8.54,0,0,0-7.94,5.39l-10,25.23a8.53,8.53,0,0,0,4.78,11.08l2.43,1L12,60.47l15.72-7.28,12,4.76A8.51,8.51,0,0,0,50.8,53.17l10-25.23A8.53,8.53,0,0,0,56,16.86L30.8,6.85a8.51,8.51,0,0,0-3.14-.61Z"/><path class="cls-2" d="M32.11,41.53a1.54,1.54,0,0,1-1.73.2,1.58,1.58,0,0,1-.86-1.64,1.54,1.54,0,0,1-1.64.19A1.61,1.61,0,0,1,27,38.91a1.57,1.57,0,0,1-1.68-.16,1.54,1.54,0,0,1-.61-1.2c.75.2,1.48.41,2.2.59a1.84,1.84,0,0,0,1.84-3c-.11-.12-.13-.17,0-.28a1.82,1.82,0,0,0,.19-2.74c-.12-.12-.13-.18,0-.3A1.8,1.8,0,0,0,29,29.3c-.11-.14-.05-.18.05-.25a1.74,1.74,0,0,0,.72-1.82,1.76,1.76,0,0,0-1.29-1.45l-1.22-.33-.46-.12c-.23-.08-.56,0-.67-.23s0-.46,0-.69c.21-1.61.32-3.22.5-4.83a1.94,1.94,0,0,1,0-.24c.06-.47.22-.64.7-.68l3.74-.29c.83-.07,1.65-.16,2.47-.24.66-.06.86.14.82.8a18.72,18.72,0,0,0,0,3.43,4.64,4.64,0,0,0,1.48,2.84,20.16,20.16,0,0,1,2.2,2.33A6.08,6.08,0,0,1,39,29L39,29c0,.19.15.41,0,.55s-.29,0-.43-.08L33.8,28.07a1.46,1.46,0,0,0-2,.91,2.69,2.69,0,0,0,1,3.44,10.55,10.55,0,0,0,2.8,1.37,1.58,1.58,0,0,1,1.12,2L35.19,41.9a1.55,1.55,0,0,1-2.64.71A1.6,1.6,0,0,1,32.11,41.53Z"/><path class="cls-2" d="M40.8,31.38A4,4,0,0,1,41.31,33,13.39,13.39,0,0,0,42,35.73a4.57,4.57,0,0,0,1.64,2.18,21.16,21.16,0,0,0,2.81,1.6l.21.1a.55.55,0,0,1,.24.91c-.16.25-.34.49-.51.73l-3,4.48c-.35.52-.53.58-1.12.32-2-.87-4-1.8-6-2.56-.45-.16-.55-.4-.43-.86.51-2,1-4,1.52-5.91.09-.3.16-.61.22-.92a2.28,2.28,0,0,0-1.42-2.6c-.73-.3-1.46-.6-2.18-.92a2.76,2.76,0,0,1-1.51-1.68A1.67,1.67,0,0,1,33,28.82a.85.85,0,0,1,.73,0L37.63,30l2.3.72A1.18,1.18,0,0,1,40.8,31.38Z"/><path class="cls-2" d="M23.67,36.2a1.13,1.13,0,0,1,0-1.2,1,1,0,0,1,1.1-.48c1,.23,2,.49,3,.79a1.13,1.13,0,0,1-.66,2.15c-.5-.11-1-.26-1.47-.39l-1.24-.33A1.16,1.16,0,0,1,23.67,36.2Z"/><path class="cls-2" d="M24.34,28.78a1.09,1.09,0,0,1,.83-.11c.91.24,1.83.48,2.73.74a1.12,1.12,0,0,1,.81,1.39,1.1,1.1,0,0,1-1.36.8c-.92-.23-1.84-.48-2.76-.74a1.13,1.13,0,0,1-.25-2.08Z"/><path class="cls-2" d="M24.26,27.38a1.07,1.07,0,0,1,.06-1.23,1,1,0,0,1,1.12-.44c.95.23,1.91.49,2.86.76a1.13,1.13,0,0,1,.75,1.36,1.09,1.09,0,0,1-1.29.83c-1-.23-1.93-.5-2.89-.77A1,1,0,0,1,24.26,27.38Z"/><path class="cls-2" d="M28.22,34.36a1.14,1.14,0,0,1-.89.13l-2.71-.73a1.15,1.15,0,0,1-.82-1.39,1.1,1.1,0,0,1,1.37-.81l2.74.73a1.12,1.12,0,0,1,.83,1A1.1,1.1,0,0,1,28.22,34.36Z"/></svg>