<svg xmlns="http://www.w3.org/2000/svg" xmlns:xlink="http://www.w3.org/1999/xlink" width="215" height="215" viewBox="0 0 215 215">
  <defs>
    <clipPath id="clip-path">
      <rect id="Rectangle_5433" data-name="Rectangle 5433" width="215" height="215" transform="translate(1159 1241)" fill="#fff" stroke="#707070" stroke-width="1"/>
    </clipPath>
    <filter id="Subtraction_33" x="2.5" y="2.5" width="230" height="230" filterUnits="userSpaceOnUse">
      <feOffset dx="10" dy="10" input="SourceAlpha"/>
      <feGaussianBlur stdDeviation="16.5" result="blur"/>
      <feFlood flood-color="#1d2a29" flood-opacity="0.541"/>
      <feComposite operator="in" in2="blur"/>
      <feComposite in="SourceGraphic"/>
    </filter>
  </defs>
  <g id="Mask_Group_1419" data-name="Mask Group 1419" transform="translate(-1159 -1241)" clip-path="url(#clip-path)">
    <g id="dark-gunmetal">
      <circle id="Ellipse_1844" data-name="Ellipse 1844" cx="107.5" cy="107.5" r="107.5" transform="translate(1159 1241)" fill="#ededed"/>
      <g id="Group_14821" data-name="Group 14821" transform="translate(0 -5.001)">
        <g transform="matrix(1, 0, 0, 1, 1159, 1246)" filter="url(#Subtraction_33)">
          <path id="Subtraction_33-2" data-name="Subtraction 33" d="M-18173.5-6321a65.1,65.1,0,0,1-25.5-5.147,65.535,65.535,0,0,1-11.127-6.04,66.032,66.032,0,0,1-9.693-8,65.9,65.9,0,0,1-8-9.694,65.393,65.393,0,0,1-6.039-11.126,65.066,65.066,0,0,1-5.148-25.5,65.062,65.062,0,0,1,5.148-25.5,65.328,65.328,0,0,1,6.039-11.125,65.977,65.977,0,0,1,8-9.693,65.9,65.9,0,0,1,9.693-8,65.416,65.416,0,0,1,11.127-6.039,65.107,65.107,0,0,1,25.5-5.147,65.08,65.08,0,0,1,25.492,5.147,65.416,65.416,0,0,1,11.127,6.039,65.9,65.9,0,0,1,9.693,8,65.977,65.977,0,0,1,8,9.693,65.418,65.418,0,0,1,6.039,11.125,65.065,65.065,0,0,1,5.148,25.5,65.066,65.066,0,0,1-5.148,25.5,65.483,65.483,0,0,1-6.039,11.126,65.9,65.9,0,0,1-8,9.694,66.032,66.032,0,0,1-9.693,8,65.57,65.57,0,0,1-11.127,6.04A65.072,65.072,0,0,1-18173.5-6321Zm0-90a24.369,24.369,0,0,0-9.539,1.925,24.438,24.438,0,0,0-7.789,5.25,24.465,24.465,0,0,0-5.25,7.788,24.356,24.356,0,0,0-1.924,9.536,24.356,24.356,0,0,0,1.924,9.537,24.472,24.472,0,0,0,5.25,7.789,24.443,24.443,0,0,0,7.789,5.251,24.354,24.354,0,0,0,9.539,1.926,24.352,24.352,0,0,0,9.537-1.926,24.45,24.45,0,0,0,7.787-5.251,24.472,24.472,0,0,0,5.25-7.789,24.356,24.356,0,0,0,1.924-9.537,24.356,24.356,0,0,0-1.924-9.536,24.465,24.465,0,0,0-5.25-7.788,24.43,24.43,0,0,0-7.787-5.25A24.36,24.36,0,0,0-18173.5-6411Z" transform="translate(18281 6494)" fill="#1d2a29"/>
        </g>
        <path id="Subtraction_32" data-name="Subtraction 32" d="M-18163-6310h0v-41a24.238,24.238,0,0,0,9.041-1.922,24.352,24.352,0,0,0,7.785-5.25,24.435,24.435,0,0,0,5.25-7.786,24.413,24.413,0,0,0,1.928-9.539,24.371,24.371,0,0,0-1.928-9.535,24.377,24.377,0,0,0-5.25-7.786,24.3,24.3,0,0,0-7.785-5.25,24.34,24.34,0,0,0-9.041-1.922v-41a64.982,64.982,0,0,1,25,5.147,65.231,65.231,0,0,1,11.129,6.038,66.092,66.092,0,0,1,9.689,8,65.944,65.944,0,0,1,8,9.7,65.565,65.565,0,0,1,6.037,11.123,65.107,65.107,0,0,1,5.15,25.5,65.073,65.073,0,0,1-5.15,25.5,65.838,65.838,0,0,1-6.037,11.128,65.848,65.848,0,0,1-8,9.695,66.061,66.061,0,0,1-9.689,8,65.525,65.525,0,0,1-11.129,6.042A65.061,65.061,0,0,1-18163-6310Z" transform="translate(19429.996 7729.004)" fill="#ededed" opacity="0.296"/>
      </g>
    </g>
  </g>
</svg>
